# Blender v3.0.0 OBJ File: 'diamond.blend'
# www.blender.org
mtllib lines.mtl
o Plane.001_Plane.004
v 14.479379 0.669157 -0.009320
v -17.315104 32.463638 -0.009320
v 14.125825 0.315603 -0.009320
v -17.668657 32.110085 -0.009320
vt 0.000000 0.000000
vt 1.000000 0.000000
vt 1.000000 1.000000
vt 0.000000 1.000000
vn 0.0000 0.0000 1.0000
usemtl None
s off
f 1/1/1 2/2/1 4/3/1 3/4/1
o Plane.002_Plane.006
v -17.668657 -31.699160 -0.009320
v 14.125825 0.095324 -0.009320
v -17.315104 -32.052711 -0.009320
v 14.479379 -0.258230 -0.009320
vt 0.000000 0.000000
vt 1.000000 0.000000
vt 1.000000 1.000000
vt 0.000000 1.000000
vn -0.0000 0.0000 -1.0000
usemtl None
s off
f 5/5/2 6/6/2 8/7/2 7/8/2
